<?xml version="1.0" encoding="UTF-8"?>
<svg width="100pt" height="100pt" version="1.1" viewBox="0 0 100 100" xmlns="http://www.w3.org/2000/svg" fill="none" stroke="1">
 <path d="m89.07 58.359-12.102-1.6406c0.26953-1.1719 0.42969-2.3711 0.44141-3.6094l11.078-1.0195c0.62109-0.058594 1.0781-0.60938 1.0195-1.2305-0.058593-0.62109-0.60156-1.0781-1.2305-1.0195l-11.012 1.0117c-0.32031-2.4297-1.2109-4.7305-2.5117-6.8516 2-6.9688 2.6016-15.578-0.91016-17.309-2.9805-1.4688-8.1719 2.4219-12.328 7.1797-3.4883-1.25-7.3711-1.9688-11.48-1.9688s-7.9805 0.71875-11.48 1.9688c-4.1719-4.7617-9.3594-8.6484-12.328-7.1797-3.5 1.7305-2.9102 10.34-0.91016 17.309-1.3008 2.1211-2.1797 4.4102-2.5117 6.8516l-11.012-1.0117c-0.62891-0.058594-1.1719 0.39844-1.2305 1.0195s0.39844 1.1719 1.0195 1.2305l11.078 1.0195c0.011719 1.2305 0.17188 2.4297 0.44141 3.6094l-12.102 1.6406c-0.62109 0.078125-1.0508 0.64844-0.96875 1.2695 0.078125 0.62109 0.64844 1.0508 1.2695 0.96875l12.449-1.6797c0.46875 1.2383 1.0781 2.4219 1.8203 3.5508l-11.98 4.5195c-0.57812 0.21875-0.87891 0.87109-0.66016 1.4609 0.19141 0.5 0.69922 0.78906 1.2109 0.71875 0.078125-0.011719 0.17188-0.03125 0.25-0.058594l12.609-4.7383c4.8594 5.8711 13.359 9.7695 23.059 9.7695 9.6992 0 18.199-3.8984 23.059-9.7695l12.57 4.7383c0.078125 0.03125 0.16016 0.050781 0.25 0.058594 0.51172 0.070312 1.0195-0.21875 1.2109-0.71875 0.21875-0.58984-0.078126-1.2383-0.66016-1.4609l-11.988-4.5195c0.73828-1.1289 1.3516-2.3203 1.8203-3.5508l12.449 1.6797c0.62109 0.078125 1.1914-0.35156 1.2695-0.96875 0.089844-0.61719-0.34766-1.1875-0.96875-1.2695zm-52.891-3.8203c-2.7305 0-4.9492-2.2188-4.9492-4.9492 0-2.7305 2.2188-4.9492 4.9492-4.9492 2.7305 0 4.9492 2.2188 4.9492 4.9492 0 2.7305-2.207 4.9492-4.9492 4.9492zm27.742 0c-2.7305 0-4.9492-2.2188-4.9492-4.9492 0-2.7305 2.2188-4.9492 4.9492-4.9492s4.9492 2.2188 4.9492 4.9492c0 2.7305-2.2109 4.9492-4.9492 4.9492z"/>
</svg>
